<svg width="1664" height="1024" viewBox="0 0 1664 1024" fill="none" xmlns="http://www.w3.org/2000/svg">
<g clip-path="url(#clip0)">
<rect width="1664" height="1024" fill="white"/>
<path d="M-407 0H2747L1670.39 311.74L-407 915V0Z" fill="#328EEF"/>
<path d="M-82 820L1704 293.5V1031.5H-141L-82 820Z" fill="#2871BF"/>
<path d="M524 602.75L459.25 709.5H436L406.75 601.75L381 749H358.5L389.25 574H421.5L451 685.5L517 574H552.75L522 749H498.25L524 602.75ZM565.014 697.75C565.014 685.75 567.014 674.75 571.014 664.75C575.18 654.583 580.93 645.917 588.264 638.75C595.597 631.583 604.347 626 614.514 622C624.68 618 635.764 616 647.764 616C657.597 616 666.18 617 673.514 619C681.014 621 687.18 623 692.014 625L676.264 713.75C676.097 714.583 675.93 715.583 675.764 716.75C675.764 717.75 675.764 718.833 675.764 720C675.764 724.667 677.097 728 679.764 730C682.43 731.833 685.93 732.75 690.264 732.75L682.514 750.25C673.514 750.25 666.597 748.083 661.764 743.75C657.097 739.417 654.764 732.5 654.764 723C650.097 731 644.18 737.833 637.014 743.5C630.014 749.167 621.764 752 612.264 752C606.097 752 600.18 750.75 594.514 748.25C588.847 745.75 583.764 742.167 579.264 737.5C574.93 732.833 571.43 727.167 568.764 720.5C566.264 713.667 565.014 706.083 565.014 697.75ZM667.264 638.25C664.097 637.25 660.764 636.5 657.264 636C653.93 635.333 649.847 635 645.014 635C636.347 635 628.514 636.5 621.514 639.5C614.514 642.5 608.514 646.667 603.514 652C598.514 657.333 594.68 663.667 592.014 671C589.347 678.333 588.014 686.333 588.014 695C588.014 701 588.847 706.333 590.514 711C592.347 715.5 594.68 719.333 597.514 722.5C600.347 725.667 603.514 728.083 607.014 729.75C610.68 731.25 614.43 732 618.264 732C623.264 732 628.014 730.667 632.514 728C637.18 725.333 641.347 721.583 645.014 716.75C648.68 711.75 651.847 705.917 654.514 699.25C657.18 692.417 659.18 685 660.514 677L667.264 638.25ZM733.213 655.5C733.38 654.667 733.463 653.75 733.463 652.75C733.63 651.583 733.713 650.417 733.713 649.25C733.713 644.583 732.38 641.333 729.713 639.5C727.046 637.5 723.546 636.5 719.213 636.5L726.963 619C735.963 619 742.796 621.083 747.463 625.25C752.13 629.417 754.463 635.75 754.463 644.25V649.25C759.296 637.25 765.463 628.75 772.963 623.75C780.63 618.583 789.296 616 798.963 616C802.796 616 806.046 616.333 808.713 617C811.546 617.5 813.88 618.167 815.713 619L805.713 641C803.713 640.167 801.63 639.583 799.463 639.25C797.296 638.917 794.796 638.75 791.963 638.75C787.463 638.75 782.963 639.917 778.463 642.25C773.963 644.417 769.713 648.167 765.713 653.5C761.713 658.833 758.046 665.833 754.713 674.5C751.38 683.167 748.63 693.917 746.463 706.75L739.213 749H716.713L733.213 655.5ZM846.781 564H869.281L855.781 640.75C860.281 633.083 866.198 627.083 873.531 622.75C880.865 618.25 889.115 616 898.281 616C903.615 616 908.531 616.917 913.031 618.75C917.698 620.417 921.615 622.75 924.781 625.75C928.115 628.75 930.698 632.333 932.531 636.5C934.365 640.5 935.281 644.833 935.281 649.5C935.281 656.167 934.115 661.917 931.781 666.75C929.448 671.583 926.115 675.583 921.781 678.75C917.615 681.917 912.615 684.25 906.781 685.75C901.115 687.25 894.865 688 888.031 688H885.531C884.698 688 883.698 687.917 882.531 687.75L903.781 720.25C906.615 724.583 909.781 727.75 913.281 729.75C916.948 731.75 921.865 732.75 928.031 732.75L920.281 750.25C912.448 750.25 905.865 749.167 900.531 747C895.365 744.667 890.698 739.917 886.531 732.75L855.781 679.75L858.031 672.5C860.531 673.667 863.698 674.667 867.531 675.5C871.365 676.167 875.698 676.5 880.531 676.5C891.531 676.5 899.781 674.25 905.281 669.75C910.781 665.25 913.531 659.333 913.531 652C913.531 646.833 911.615 642.5 907.781 639C904.115 635.333 899.115 633.5 892.781 633.5C889.281 633.5 885.281 634.333 880.781 636C876.448 637.5 872.115 640.167 867.781 644C863.448 647.833 859.448 653 855.781 659.5C852.281 666 849.698 674.25 848.031 684.25L836.781 749H814.281L846.781 564ZM1070.52 750.25C1061.52 750.25 1054.61 748.083 1049.77 743.75C1045.11 739.25 1042.77 732.25 1042.77 722.75C1037.94 730.75 1031.86 737.667 1024.52 743.5C1017.19 749.167 1008.69 752 999.023 752C992.69 752 986.607 750.75 980.773 748.25C975.107 745.75 970.023 742.167 965.523 737.5C961.19 732.833 957.69 727.167 955.023 720.5C952.523 713.667 951.273 706.083 951.273 697.75C951.273 685.083 953.19 673.667 957.023 663.5C961.023 653.333 966.107 644.75 972.273 637.75C978.607 630.75 985.69 625.417 993.523 621.75C1001.36 617.917 1009.27 616 1017.27 616C1026.27 616 1033.94 618.167 1040.27 622.5C1046.61 626.833 1051.52 632.167 1055.02 638.5L1068.27 564H1090.77L1064.27 713.75C1064.11 714.583 1063.94 715.583 1063.77 716.75C1063.77 717.75 1063.77 718.833 1063.77 720C1063.77 724.667 1065.11 728 1067.77 730C1070.44 731.833 1073.94 732.75 1078.27 732.75L1070.52 750.25ZM1005.02 732C1009.69 732 1014.27 730.917 1018.77 728.75C1023.27 726.417 1027.36 723.167 1031.02 719C1034.86 714.667 1038.11 709.5 1040.77 703.5C1043.61 697.5 1045.69 690.833 1047.02 683.5L1051.52 657.75C1048.19 650.75 1043.69 645.333 1038.02 641.5C1032.36 637.5 1026.11 635.5 1019.27 635.5C1013.44 635.5 1007.77 636.833 1002.27 639.5C996.94 642.167 992.19 646.083 988.023 651.25C983.857 656.25 980.523 662.417 978.023 669.75C975.523 677.083 974.273 685.333 974.273 694.5C974.273 700.667 975.107 706.083 976.773 710.75C978.607 715.417 980.94 719.333 983.773 722.5C986.607 725.667 989.857 728.083 993.523 729.75C997.19 731.25 1001.02 732 1005.02 732ZM1161.66 732C1169.16 732 1175.82 730.583 1181.66 727.75C1187.49 724.917 1192.49 721 1196.66 716C1200.82 711 1203.99 705.167 1206.16 698.5C1208.32 691.833 1209.41 684.583 1209.41 676.75C1209.41 671.083 1208.49 665.75 1206.66 660.75C1204.99 655.75 1202.49 651.417 1199.16 647.75C1195.99 644.083 1192.07 641.25 1187.41 639.25C1182.74 637.083 1177.41 636 1171.41 636C1164.07 636 1157.41 637.417 1151.41 640.25C1145.57 643.083 1140.57 647 1136.41 652C1132.24 657 1129.07 662.917 1126.91 669.75C1124.74 676.417 1123.66 683.583 1123.66 691.25C1123.66 696.917 1124.49 702.25 1126.16 707.25C1127.82 712.25 1130.24 716.583 1133.41 720.25C1136.74 723.917 1140.74 726.833 1145.41 729C1150.24 731 1155.66 732 1161.66 732ZM1160.91 752C1151.57 752 1143.16 750.583 1135.66 747.75C1128.32 744.75 1122.07 740.667 1116.91 735.5C1111.74 730.333 1107.74 724.167 1104.91 717C1102.07 709.667 1100.66 701.75 1100.66 693.25C1100.66 682.417 1102.32 672.333 1105.66 663C1108.99 653.5 1113.74 645.333 1119.91 638.5C1126.24 631.5 1133.82 626 1142.66 622C1151.49 618 1161.32 616 1172.16 616C1181.32 616 1189.66 617.5 1197.16 620.5C1204.66 623.333 1210.99 627.333 1216.16 632.5C1221.32 637.667 1225.32 643.917 1228.16 651.25C1230.99 658.417 1232.41 666.25 1232.41 674.75C1232.41 685.583 1230.74 695.75 1227.41 705.25C1224.07 714.583 1219.24 722.75 1212.91 729.75C1206.74 736.583 1199.24 742 1190.41 746C1181.57 750 1171.74 752 1160.91 752ZM1270.39 749L1250.89 620.75L1272.64 617.75L1287.39 724L1334.64 628.25H1358.39L1371.39 724L1423.89 617.75L1442.39 627.25L1380.14 749H1355.39L1342.39 653.5L1295.14 749H1270.39ZM1526.4 635.75C1522.07 635.75 1517.32 637 1512.15 639.5C1507.15 641.833 1502.24 645.5 1497.4 650.5C1492.74 655.5 1488.49 661.917 1484.65 669.75C1480.82 677.417 1477.99 686.583 1476.15 697.25L1467.15 749H1444.65L1467.4 619H1489.15L1483.65 649C1488.82 639 1495.74 631 1504.4 625C1513.07 619 1522.32 616 1532.15 616C1537.82 616 1542.99 616.917 1547.65 618.75C1552.32 620.583 1556.24 623.167 1559.4 626.5C1562.74 629.667 1565.24 633.417 1566.9 637.75C1568.74 642.083 1569.65 646.75 1569.65 651.75C1569.65 656.083 1569.15 661.333 1568.15 667.5L1553.9 749H1531.4L1545.15 671.25C1545.99 667.25 1546.49 664.333 1546.65 662.5C1546.82 660.667 1546.9 658.833 1546.9 657C1546.9 650.5 1544.99 645.333 1541.15 641.5C1537.49 637.667 1532.57 635.75 1526.4 635.75Z" fill="white"/>
<path d="M733.7 807.9L743.2 805.9L755.3 866.6L787.1 806.2L795.5 810.8L759.2 877H748.3L733.7 807.9ZM789.88 856.5C789.88 851.7 790.68 847.3 792.28 843.3C793.946 839.233 796.246 835.767 799.18 832.9C802.113 830.033 805.613 827.8 809.68 826.2C813.746 824.6 818.18 823.8 822.98 823.8C826.913 823.8 830.346 824.2 833.28 825C836.28 825.8 838.746 826.6 840.68 827.4L834.38 862.9C834.313 863.233 834.246 863.633 834.18 864.1C834.18 864.5 834.18 864.933 834.18 865.4C834.18 867.267 834.713 868.6 835.78 869.4C836.846 870.133 838.246 870.5 839.98 870.5L836.88 877.5C833.28 877.5 830.513 876.633 828.58 874.9C826.713 873.167 825.78 870.4 825.78 866.6C823.913 869.8 821.546 872.533 818.68 874.8C815.88 877.067 812.58 878.2 808.78 878.2C806.313 878.2 803.946 877.7 801.68 876.7C799.413 875.7 797.38 874.267 795.58 872.4C793.846 870.533 792.446 868.267 791.38 865.6C790.38 862.867 789.88 859.833 789.88 856.5ZM830.78 832.7C829.513 832.3 828.18 832 826.78 831.8C825.446 831.533 823.813 831.4 821.88 831.4C818.413 831.4 815.28 832 812.48 833.2C809.68 834.4 807.28 836.067 805.28 838.2C803.28 840.333 801.746 842.867 800.68 845.8C799.613 848.733 799.08 851.933 799.08 855.4C799.08 857.8 799.413 859.933 800.08 861.8C800.813 863.6 801.746 865.133 802.88 866.4C804.013 867.667 805.28 868.633 806.68 869.3C808.146 869.9 809.646 870.2 811.18 870.2C813.18 870.2 815.08 869.667 816.88 868.6C818.746 867.533 820.413 866.033 821.88 864.1C823.346 862.1 824.613 859.767 825.68 857.1C826.746 854.367 827.546 851.4 828.08 848.2L830.78 832.7ZM859.959 859C859.826 859.933 859.726 860.733 859.659 861.4C859.593 862.067 859.559 862.667 859.559 863.2C859.559 865.533 860.226 867.333 861.559 868.6C862.893 869.8 864.726 870.4 867.059 870.4C868.193 870.4 869.326 870.267 870.459 870C871.593 869.733 872.626 869.367 873.559 868.9L874.459 876.2C873.259 876.8 871.859 877.267 870.259 877.6C868.659 878 866.926 878.2 865.059 878.2C863.059 878.2 861.159 877.9 859.359 877.3C857.626 876.767 856.093 875.933 854.759 874.8C853.493 873.667 852.459 872.233 851.659 870.5C850.926 868.7 850.559 866.633 850.559 864.3C850.559 863.367 850.593 862.533 850.659 861.8C850.726 861 850.826 860.133 850.959 859.2L860.759 803H869.759L859.959 859ZM896.595 878.2C894.595 878.2 892.695 877.867 890.895 877.2C889.162 876.533 887.595 875.567 886.195 874.3C884.862 873.033 883.795 871.5 882.995 869.7C882.262 867.9 881.895 865.867 881.895 863.6C881.895 862.733 881.929 861.867 881.995 861C882.062 860.067 882.162 859.1 882.295 858.1L887.995 825H896.995L891.195 857.9C891.062 858.567 890.962 859.167 890.895 859.7C890.895 860.167 890.895 860.7 890.895 861.3C890.895 864.3 891.762 866.533 893.495 868C895.229 869.467 897.262 870.2 899.595 870.2C901.462 870.2 903.329 869.767 905.195 868.9C907.129 867.967 908.895 866.667 910.495 865C912.095 863.333 913.495 861.3 914.695 858.9C915.962 856.433 916.862 853.633 917.395 850.5L921.895 825H930.895L924.295 862.9C924.229 863.233 924.162 863.633 924.095 864.1C924.095 864.5 924.095 864.933 924.095 865.4C924.095 867.267 924.629 868.6 925.695 869.4C926.762 870.133 928.162 870.5 929.895 870.5L926.795 877.5C923.195 877.5 920.429 876.633 918.495 874.9C916.629 873.167 915.695 870.4 915.695 866.6V865.7C910.829 874.033 904.462 878.2 896.595 878.2ZM960.717 878.2C957.384 878.2 954.351 877.667 951.617 876.6C948.884 875.467 946.517 873.9 944.517 871.9C942.584 869.833 941.051 867.333 939.917 864.4C938.851 861.467 938.317 858.167 938.317 854.5C938.317 850.367 938.984 846.433 940.317 842.7C941.651 838.967 943.517 835.7 945.917 832.9C948.384 830.1 951.351 827.9 954.817 826.3C958.284 824.633 962.151 823.8 966.417 823.8C969.284 823.8 971.851 824.233 974.117 825.1C976.384 825.967 978.284 827.1 979.817 828.5C981.417 829.9 982.617 831.533 983.417 833.4C984.284 835.267 984.717 837.2 984.717 839.2C984.717 842.933 983.817 845.967 982.017 848.3C980.284 850.633 978.084 852.5 975.417 853.9C972.751 855.233 969.817 856.167 966.617 856.7C963.417 857.167 960.384 857.4 957.517 857.4C955.717 857.4 953.917 857.333 952.117 857.2C950.384 857 948.851 856.8 947.517 856.6C948.051 861 949.584 864.367 952.117 866.7C954.717 869.033 958.084 870.2 962.217 870.2C965.551 870.2 968.517 869.767 971.117 868.9C973.717 868.033 975.917 867.167 977.717 866.3L978.517 874.3C976.517 875.233 973.984 876.133 970.917 877C967.917 877.8 964.517 878.2 960.717 878.2ZM965.717 831.4C963.384 831.4 961.184 831.867 959.117 832.8C957.117 833.667 955.317 834.9 953.717 836.5C952.184 838.1 950.884 840 949.817 842.2C948.817 844.4 948.117 846.8 947.717 849.4C949.251 849.733 950.784 849.967 952.317 850.1C953.851 850.233 955.584 850.3 957.517 850.3C963.184 850.3 967.617 849.533 970.817 848C974.084 846.4 975.717 843.7 975.717 839.9C975.717 837.567 974.784 835.567 972.917 833.9C971.117 832.233 968.717 831.4 965.717 831.4ZM1038.86 869C1040.72 869 1042.59 868.567 1044.46 867.7C1046.32 866.767 1048.06 865.433 1049.66 863.7C1051.32 861.967 1052.76 859.833 1053.96 857.3C1055.16 854.767 1056.06 851.867 1056.66 848.6L1060.76 825H1069.76L1060.66 877.6C1059.86 882.2 1058.62 885.933 1056.96 888.8C1055.29 891.733 1053.39 894.033 1051.26 895.7C1049.12 897.433 1046.86 898.6 1044.46 899.2C1042.06 899.867 1039.69 900.2 1037.36 900.2C1032.82 900.2 1028.96 899.267 1025.76 897.4C1022.62 895.6 1020.06 893.433 1018.06 890.9L1025.06 885.7C1028.32 890.167 1032.62 892.4 1037.96 892.4C1041.29 892.4 1044.22 891.167 1046.76 888.7C1049.29 886.233 1051.09 882.033 1052.16 876.1L1054.06 865.5C1052.06 868.7 1049.52 871.433 1046.46 873.7C1043.39 875.9 1039.86 877 1035.86 877C1033.86 877 1031.99 876.667 1030.26 876C1028.52 875.333 1026.99 874.367 1025.66 873.1C1024.32 871.833 1023.26 870.3 1022.46 868.5C1021.72 866.7 1021.36 864.667 1021.36 862.4C1021.36 861.667 1021.39 860.833 1021.46 859.9C1021.52 858.967 1021.62 857.967 1021.76 856.9L1027.16 825H1036.16L1030.66 856.7C1030.46 857.9 1030.36 859.033 1030.36 860.1C1030.36 863.1 1031.19 865.333 1032.86 866.8C1034.52 868.267 1036.52 869 1038.86 869ZM1100.51 870.2C1103.51 870.2 1106.18 869.633 1108.51 868.5C1110.84 867.367 1112.84 865.8 1114.51 863.8C1116.18 861.8 1117.44 859.467 1118.31 856.8C1119.18 854.133 1119.61 851.233 1119.61 848.1C1119.61 845.833 1119.24 843.7 1118.51 841.7C1117.84 839.7 1116.84 837.967 1115.51 836.5C1114.24 835.033 1112.68 833.9 1110.81 833.1C1108.94 832.233 1106.81 831.8 1104.41 831.8C1101.48 831.8 1098.81 832.367 1096.41 833.5C1094.08 834.633 1092.08 836.2 1090.41 838.2C1088.74 840.2 1087.48 842.567 1086.61 845.3C1085.74 847.967 1085.31 850.833 1085.31 853.9C1085.31 856.167 1085.64 858.3 1086.31 860.3C1086.98 862.3 1087.94 864.033 1089.21 865.5C1090.54 866.967 1092.14 868.133 1094.01 869C1095.94 869.8 1098.11 870.2 1100.51 870.2ZM1100.21 878.2C1096.48 878.2 1093.11 877.633 1090.11 876.5C1087.18 875.3 1084.68 873.667 1082.61 871.6C1080.54 869.533 1078.94 867.067 1077.81 864.2C1076.68 861.267 1076.11 858.1 1076.11 854.7C1076.11 850.367 1076.78 846.333 1078.11 842.6C1079.44 838.8 1081.34 835.533 1083.81 832.8C1086.34 830 1089.38 827.8 1092.91 826.2C1096.44 824.6 1100.38 823.8 1104.71 823.8C1108.38 823.8 1111.71 824.4 1114.71 825.6C1117.71 826.733 1120.24 828.333 1122.31 830.4C1124.38 832.467 1125.98 834.967 1127.11 837.9C1128.24 840.767 1128.81 843.9 1128.81 847.3C1128.81 851.633 1128.14 855.7 1126.81 859.5C1125.48 863.233 1123.54 866.5 1121.01 869.3C1118.54 872.033 1115.54 874.2 1112.01 875.8C1108.48 877.4 1104.54 878.2 1100.21 878.2ZM1151.87 878.2C1149.87 878.2 1147.97 877.867 1146.17 877.2C1144.44 876.533 1142.87 875.567 1141.47 874.3C1140.14 873.033 1139.07 871.5 1138.27 869.7C1137.54 867.9 1137.17 865.867 1137.17 863.6C1137.17 862.733 1137.2 861.867 1137.27 861C1137.34 860.067 1137.44 859.1 1137.57 858.1L1143.27 825H1152.27L1146.47 857.9C1146.34 858.567 1146.24 859.167 1146.17 859.7C1146.17 860.167 1146.17 860.7 1146.17 861.3C1146.17 864.3 1147.04 866.533 1148.77 868C1150.5 869.467 1152.54 870.2 1154.87 870.2C1156.74 870.2 1158.6 869.767 1160.47 868.9C1162.4 867.967 1164.17 866.667 1165.77 865C1167.37 863.333 1168.77 861.3 1169.97 858.9C1171.24 856.433 1172.14 853.633 1172.67 850.5L1177.17 825H1186.17L1179.57 862.9C1179.5 863.233 1179.44 863.633 1179.37 864.1C1179.37 864.5 1179.37 864.933 1179.37 865.4C1179.37 867.267 1179.9 868.6 1180.97 869.4C1182.04 870.133 1183.44 870.5 1185.17 870.5L1182.07 877.5C1178.47 877.5 1175.7 876.633 1173.77 874.9C1171.9 873.167 1170.97 870.4 1170.97 866.6V865.7C1166.1 874.033 1159.74 878.2 1151.87 878.2ZM1202.18 839.6C1202.25 839.267 1202.28 838.9 1202.28 838.5C1202.35 838.033 1202.38 837.567 1202.38 837.1C1202.38 835.233 1201.85 833.933 1200.78 833.2C1199.71 832.4 1198.31 832 1196.58 832L1199.68 825C1203.28 825 1206.01 825.833 1207.88 827.5C1209.75 829.167 1210.68 831.7 1210.68 835.1V837.1C1212.61 832.3 1215.08 828.9 1218.08 826.9C1221.15 824.833 1224.61 823.8 1228.48 823.8C1230.01 823.8 1231.31 823.933 1232.38 824.2C1233.51 824.4 1234.45 824.667 1235.18 825L1231.18 833.8C1230.38 833.467 1229.55 833.233 1228.68 833.1C1227.81 832.967 1226.81 832.9 1225.68 832.9C1223.88 832.9 1222.08 833.367 1220.28 834.3C1218.48 835.167 1216.78 836.667 1215.18 838.8C1213.58 840.933 1212.11 843.733 1210.78 847.2C1209.45 850.667 1208.35 854.967 1207.48 860.1L1204.58 877H1195.58L1202.18 839.6ZM1270.59 825C1277.52 825 1280.99 828 1280.99 834V836.1C1282.92 832.5 1285.39 829.567 1288.39 827.3C1291.45 824.967 1295.05 823.8 1299.19 823.8C1301.85 823.8 1304.29 824.333 1306.49 825.4C1308.69 826.467 1310.55 827.967 1312.09 829.9C1313.62 831.767 1314.79 834.033 1315.59 836.7C1316.45 839.3 1316.89 842.2 1316.89 845.4C1316.89 850.333 1316.15 854.833 1314.69 858.9C1313.22 862.9 1311.29 866.333 1308.89 869.2C1306.49 872.067 1303.72 874.3 1300.59 875.9C1297.52 877.433 1294.35 878.2 1291.09 878.2C1287.89 878.2 1284.89 877.4 1282.09 875.8C1279.35 874.2 1277.22 872.233 1275.69 869.9L1270.59 899H1261.59L1271.99 839.5C1272.19 838.433 1272.29 837.5 1272.29 836.7C1272.29 833.567 1270.65 832 1267.39 832L1270.59 825ZM1290.29 870.2C1292.62 870.2 1294.82 869.633 1296.89 868.5C1299.02 867.3 1300.89 865.667 1302.49 863.6C1304.09 861.467 1305.35 858.933 1306.29 856C1307.22 853.067 1307.69 849.833 1307.69 846.3C1307.69 841.7 1306.65 838.1 1304.59 835.5C1302.52 832.9 1299.82 831.6 1296.49 831.6C1294.49 831.6 1292.52 832.1 1290.59 833.1C1288.72 834.033 1287.02 835.367 1285.49 837.1C1283.95 838.833 1282.59 840.967 1281.39 843.5C1280.25 845.967 1279.42 848.7 1278.89 851.7L1277.09 861.8C1278.55 864.533 1280.42 866.633 1282.69 868.1C1285.02 869.5 1287.55 870.2 1290.29 870.2ZM1332.84 839.6C1332.91 839.267 1332.94 838.9 1332.94 838.5C1333.01 838.033 1333.04 837.567 1333.04 837.1C1333.04 835.233 1332.51 833.933 1331.44 833.2C1330.38 832.4 1328.98 832 1327.24 832L1330.34 825C1333.94 825 1336.68 825.833 1338.54 827.5C1340.41 829.167 1341.34 831.7 1341.34 835.1V837.1C1343.28 832.3 1345.74 828.9 1348.74 826.9C1351.81 824.833 1355.28 823.8 1359.14 823.8C1360.68 823.8 1361.98 823.933 1363.04 824.2C1364.18 824.4 1365.11 824.667 1365.84 825L1361.84 833.8C1361.04 833.467 1360.21 833.233 1359.34 833.1C1358.48 832.967 1357.48 832.9 1356.34 832.9C1354.54 832.9 1352.74 833.367 1350.94 834.3C1349.14 835.167 1347.44 836.667 1345.84 838.8C1344.24 840.933 1342.78 843.733 1341.44 847.2C1340.11 850.667 1339.01 854.967 1338.14 860.1L1335.24 877H1326.24L1332.84 839.6ZM1388.69 870.2C1391.69 870.2 1394.36 869.633 1396.69 868.5C1399.03 867.367 1401.03 865.8 1402.69 863.8C1404.36 861.8 1405.63 859.467 1406.49 856.8C1407.36 854.133 1407.79 851.233 1407.79 848.1C1407.79 845.833 1407.43 843.7 1406.69 841.7C1406.03 839.7 1405.03 837.967 1403.69 836.5C1402.43 835.033 1400.86 833.9 1398.99 833.1C1397.13 832.233 1394.99 831.8 1392.59 831.8C1389.66 831.8 1386.99 832.367 1384.59 833.5C1382.26 834.633 1380.26 836.2 1378.59 838.2C1376.93 840.2 1375.66 842.567 1374.79 845.3C1373.93 847.967 1373.49 850.833 1373.49 853.9C1373.49 856.167 1373.83 858.3 1374.49 860.3C1375.16 862.3 1376.13 864.033 1377.39 865.5C1378.73 866.967 1380.33 868.133 1382.19 869C1384.13 869.8 1386.29 870.2 1388.69 870.2ZM1388.39 878.2C1384.66 878.2 1381.29 877.633 1378.29 876.5C1375.36 875.3 1372.86 873.667 1370.79 871.6C1368.73 869.533 1367.13 867.067 1365.99 864.2C1364.86 861.267 1364.29 858.1 1364.29 854.7C1364.29 850.367 1364.96 846.333 1366.29 842.6C1367.63 838.8 1369.53 835.533 1371.99 832.8C1374.53 830 1377.56 827.8 1381.09 826.2C1384.63 824.6 1388.56 823.8 1392.89 823.8C1396.56 823.8 1399.89 824.4 1402.89 825.6C1405.89 826.733 1408.43 828.333 1410.49 830.4C1412.56 832.467 1414.16 834.967 1415.29 837.9C1416.43 840.767 1416.99 843.9 1416.99 847.3C1416.99 851.633 1416.33 855.7 1414.99 859.5C1413.66 863.233 1411.73 866.5 1409.19 869.3C1406.73 872.033 1403.73 874.2 1400.19 875.8C1396.66 877.4 1392.73 878.2 1388.39 878.2ZM1433.28 825H1442.28L1431.88 884.2C1431.34 887.133 1430.58 889.6 1429.58 891.6C1428.58 893.667 1427.34 895.333 1425.88 896.6C1424.48 897.867 1422.88 898.767 1421.08 899.3C1419.28 899.9 1417.34 900.2 1415.28 900.2C1413.08 900.2 1411.08 899.9 1409.28 899.3C1407.41 898.7 1405.78 897.867 1404.38 896.8L1407.98 889.4C1408.91 890.333 1410.01 891.067 1411.28 891.6C1412.48 892.133 1413.84 892.4 1415.38 892.4C1417.18 892.4 1418.71 891.767 1419.98 890.5C1421.31 889.233 1422.24 887.2 1422.78 884.4L1433.28 825ZM1439.88 816.1C1438.01 816.1 1436.58 815.567 1435.58 814.5C1434.64 813.367 1434.18 812.067 1434.18 810.6C1434.18 808.467 1434.84 806.767 1436.18 805.5C1437.51 804.167 1439.18 803.5 1441.18 803.5C1443.04 803.5 1444.44 804.067 1445.38 805.2C1446.38 806.267 1446.88 807.533 1446.88 809C1446.88 811.133 1446.21 812.867 1444.88 814.2C1443.54 815.467 1441.88 816.1 1439.88 816.1ZM1472.14 878.2C1468.81 878.2 1465.78 877.667 1463.04 876.6C1460.31 875.467 1457.94 873.9 1455.94 871.9C1454.01 869.833 1452.48 867.333 1451.34 864.4C1450.28 861.467 1449.74 858.167 1449.74 854.5C1449.74 850.367 1450.41 846.433 1451.74 842.7C1453.08 838.967 1454.94 835.7 1457.34 832.9C1459.81 830.1 1462.78 827.9 1466.24 826.3C1469.71 824.633 1473.58 823.8 1477.84 823.8C1480.71 823.8 1483.28 824.233 1485.54 825.1C1487.81 825.967 1489.71 827.1 1491.24 828.5C1492.84 829.9 1494.04 831.533 1494.84 833.4C1495.71 835.267 1496.14 837.2 1496.14 839.2C1496.14 842.933 1495.24 845.967 1493.44 848.3C1491.71 850.633 1489.51 852.5 1486.84 853.9C1484.18 855.233 1481.24 856.167 1478.04 856.7C1474.84 857.167 1471.81 857.4 1468.94 857.4C1467.14 857.4 1465.34 857.333 1463.54 857.2C1461.81 857 1460.28 856.8 1458.94 856.6C1459.48 861 1461.01 864.367 1463.54 866.7C1466.14 869.033 1469.51 870.2 1473.64 870.2C1476.98 870.2 1479.94 869.767 1482.54 868.9C1485.14 868.033 1487.34 867.167 1489.14 866.3L1489.94 874.3C1487.94 875.233 1485.41 876.133 1482.34 877C1479.34 877.8 1475.94 878.2 1472.14 878.2ZM1477.14 831.4C1474.81 831.4 1472.61 831.867 1470.54 832.8C1468.54 833.667 1466.74 834.9 1465.14 836.5C1463.61 838.1 1462.31 840 1461.24 842.2C1460.24 844.4 1459.54 846.8 1459.14 849.4C1460.68 849.733 1462.21 849.967 1463.74 850.1C1465.28 850.233 1467.01 850.3 1468.94 850.3C1474.61 850.3 1479.04 849.533 1482.24 848C1485.51 846.4 1487.14 843.7 1487.14 839.9C1487.14 837.567 1486.21 835.567 1484.34 833.9C1482.54 832.233 1480.14 831.4 1477.14 831.4ZM1540.9 835.5C1539.17 834.433 1537.33 833.567 1535.4 832.9C1533.53 832.167 1531.43 831.8 1529.1 831.8C1526.3 831.8 1523.77 832.367 1521.5 833.5C1519.23 834.633 1517.3 836.2 1515.7 838.2C1514.1 840.133 1512.87 842.433 1512 845.1C1511.13 847.767 1510.7 850.633 1510.7 853.7C1510.7 858.767 1511.97 862.8 1514.5 865.8C1517.03 868.733 1520.5 870.2 1524.9 870.2C1527.43 870.2 1529.67 869.9 1531.6 869.3C1533.53 868.7 1535.3 868 1536.9 867.2L1538 875.1C1536.33 875.833 1534.3 876.533 1531.9 877.2C1529.57 877.867 1526.73 878.2 1523.4 878.2C1520.13 878.2 1517.17 877.667 1514.5 876.6C1511.83 875.467 1509.53 873.867 1507.6 871.8C1505.67 869.733 1504.17 867.3 1503.1 864.5C1502.03 861.633 1501.5 858.433 1501.5 854.9C1501.5 850.7 1502.13 846.733 1503.4 843C1504.73 839.267 1506.63 835.967 1509.1 833.1C1511.57 830.233 1514.53 827.967 1518 826.3C1521.47 824.633 1525.4 823.8 1529.8 823.8C1532.93 823.8 1535.7 824.2 1538.1 825C1540.5 825.733 1542.67 826.667 1544.6 827.8L1540.9 835.5ZM1549.3 826.9H1558.5L1563.3 810.5H1570.2L1567.3 826.9H1581.7L1580.4 834.7H1565.9L1561.7 859C1561.43 860.333 1561.3 861.6 1561.3 862.8C1561.3 865.133 1561.96 866.967 1563.3 868.3C1564.7 869.567 1566.56 870.2 1568.9 870.2C1570.83 870.2 1572.43 869.933 1573.7 869.4C1575.03 868.8 1576.26 868.2 1577.4 867.6L1578.5 875.4C1577.23 876.133 1575.63 876.767 1573.7 877.3C1571.83 877.9 1569.73 878.2 1567.4 878.2C1565.53 878.2 1563.7 877.9 1561.9 877.3C1560.1 876.767 1558.5 875.933 1557.1 874.8C1555.7 873.6 1554.56 872.067 1553.7 870.2C1552.83 868.333 1552.4 866.1 1552.4 863.5C1552.4 862.767 1552.43 862.033 1552.5 861.3C1552.56 860.5 1552.66 859.6 1552.8 858.6L1556.9 834.7H1548L1549.3 826.9Z" fill="white"/>
<path d="M654.091 124.297H144.909C129.11 124.297 116.303 137.099 116.303 152.891V433.109C116.303 448.901 129.11 461.703 144.909 461.703H654.091C669.89 461.703 682.697 448.901 682.697 433.109V152.891C682.697 137.099 669.89 124.297 654.091 124.297Z" stroke="white" stroke-width="10"/>
<path d="M187.817 390.219V195.781H245.029L302.24 267.266L359.452 195.781H416.663V390.219H359.452V278.703L302.24 350.188L245.029 278.703V390.219H187.817ZM545.389 390.219L459.572 295.859H516.784V195.781H573.995V295.859H631.207L545.389 390.219Z" fill="white"/>
</g>
<defs>
<clipPath id="clip0">
<rect width="1664" height="1024" fill="white"/>
</clipPath>
</defs>
</svg>
